<?xml version="1.0" encoding="UTF-8" standalone="no"?>
<svg
   xmlns:dc="http://purl.org/dc/elements/1.1/"
   xmlns:cc="http://creativecommons.org/ns#"
   xmlns:rdf="http://www.w3.org/1999/02/22-rdf-syntax-ns#"
   xmlns:svg="http://www.w3.org/2000/svg"
   xmlns="http://www.w3.org/2000/svg"
   viewBox="0 0 1587.4 1122.52"
   height="1122.52"
   width="1587.4"
   xml:space="preserve"
   id="svg2"
   version="1.1"><metadata
     id="metadata8"><rdf:RDF><cc:Work
         rdf:about=""><dc:format>image/svg+xml</dc:format><dc:type
           rdf:resource="http://purl.org/dc/dcmitype/StillImage" /></cc:Work></rdf:RDF></metadata><defs
     id="defs6"><clipPath
       id="clipPath20"
       clipPathUnits="userSpaceOnUse"><path
         id="path18"
         d="M 0,841.89 H 1190.551 V 0 H 0 Z" /></clipPath></defs><g
     transform="matrix(1.3333333,0,0,-1.3333333,0,1122.52)"
     id="g10"><path
       id="path12"
       style="fill:#002f41;fill-opacity:1;fill-rule:nonzero;stroke:none"
       d="M 0,0 H 1190.552 V 841.89 H 0 Z" /><g
       id="g14"><g
         clip-path="url(#clipPath20)"
         id="g16"><g
           transform="translate(134.6625,510.1677)"
           id="g22"><path
             id="path24"
             style="fill:#b4b8c1;fill-opacity:1;fill-rule:nonzero;stroke:none"
             d="m 0,0 v -0.824 c -0.059,-1.51 -0.406,-2.957 -1.044,-4.34 -0.638,-1.382 -1.496,-2.594 -2.574,-3.633 -1.079,-1.04 -2.319,-1.849 -3.723,-2.428 -1.401,-0.578 -2.858,-0.868 -4.369,-0.868 -1.549,0 -3.034,0.304 -4.457,0.913 -1.422,0.607 -2.673,1.451 -3.751,2.53 -1.079,1.078 -1.918,2.329 -2.516,3.751 -0.598,1.422 -0.896,2.918 -0.896,4.487 0,1.589 0.298,3.094 0.896,4.516 0.598,1.422 1.437,2.673 2.516,3.751 1.078,1.079 2.329,1.922 3.751,2.531 1.423,0.608 2.908,0.912 4.457,0.912 1.511,0 2.968,-0.295 4.369,-0.883 C -5.937,9.827 -4.697,9.013 -3.618,7.973 -2.54,6.933 -1.682,5.722 -1.044,4.339 -0.406,2.957 -0.059,1.51 0,0 m 39.719,-0.441 c 0,-1.57 -0.304,-3.06 -0.912,-4.473 -0.608,-1.412 -1.453,-2.647 -2.531,-3.707 -1.078,-1.079 -2.324,-1.912 -3.736,-2.501 -1.412,-0.588 -2.913,-0.882 -4.501,-0.882 -1.59,0 -3.095,0.294 -4.517,0.882 -1.422,0.589 -2.672,1.422 -3.751,2.501 -1.08,1.06 -1.917,2.295 -2.516,3.707 -0.598,1.413 -0.897,2.903 -0.897,4.473 0,1.588 0.299,3.099 0.897,4.53 0.599,1.432 1.436,2.697 2.516,3.796 1.079,1.098 2.334,1.951 3.766,2.559 1.432,0.608 2.932,0.912 4.502,0.912 1.568,0 3.065,-0.304 4.486,-0.912 1.422,-0.608 2.673,-1.461 3.751,-2.559 1.078,-1.099 1.923,-2.368 2.531,-3.81 0.608,-1.442 0.912,-2.948 0.912,-4.516 M 9.766,-41.159 c -22.468,0 -40.747,18.279 -40.747,40.747 0,22.467 18.279,40.746 40.747,40.746 20.526,0 37.547,-15.26 40.337,-35.028 l -7,-5.924 v 0.265 c 0,2.04 -0.388,3.981 -1.163,5.825 -0.775,1.844 -1.849,3.462 -3.221,4.855 -1.393,1.372 -3.012,2.446 -4.856,3.222 -1.842,0.775 -3.785,1.162 -5.824,1.162 -2.335,0 -4.561,-0.559 -6.679,-1.677 -2.001,-1.079 -3.669,-2.551 -5.002,-4.414 v 4.443 c 0,0.707 -0.353,1.059 -1.059,1.059 h -1.206 c -0.746,0 -1.118,-0.352 -1.118,-1.059 V -2.326 c -0.121,-0.076 -0.238,-0.146 -0.381,-0.263 l -9.21,-7.768 V 13.21 c 0,0.295 -0.084,0.525 -0.25,0.692 -0.167,0.166 -0.398,0.25 -0.692,0.25 h -1.5 c -0.295,0 -0.53,-0.084 -0.706,-0.25 C 0.06,13.735 -0.028,13.505 -0.028,13.21 V 8.562 c -1.334,1.863 -3.002,3.334 -5.002,4.413 -2.119,1.118 -4.335,1.677 -6.65,1.677 -2.04,0 -3.972,-0.388 -5.797,-1.162 -1.823,-0.775 -3.431,-1.859 -4.824,-3.251 -1.393,-1.393 -2.476,-3.011 -3.251,-4.855 -0.775,-1.843 -1.163,-3.786 -1.163,-5.825 0,-2.04 0.388,-3.978 1.163,-5.811 0.775,-1.834 1.858,-3.438 3.251,-4.811 1.373,-1.393 2.976,-2.476 4.81,-3.25 1.834,-0.775 3.771,-1.163 5.811,-1.163 2.334,0 4.551,0.569 6.65,1.707 1.961,1.039 3.628,2.49 5.002,4.353 v -4.324 c 0,-0.706 0.362,-1.059 1.088,-1.059 h 1.412 c 0.372,0 0.686,0.117 0.941,0.353 l 9.562,7.892 v -21.839 c 0,-0.333 0.097,-0.597 0.294,-0.794 0.196,-0.195 0.47,-0.293 0.824,-0.293 h 1.206 c 0.706,0 1.059,0.362 1.059,1.087 v 19.096 c 1.353,-1.864 3.021,-3.325 5.002,-4.384 2.098,-1.137 4.325,-1.707 6.679,-1.707 3.472,0 6.541,1.03 9.208,3.089 1.217,0.922 2.285,2.016 3.207,3.281 0.922,1.266 1.687,2.653 2.295,4.163 1.039,0.863 2.894,2.374 5.562,4.531 l 0.911,0.736 c 0.477,0.383 0.884,0.711 1.244,1.001 0.026,-0.606 0.046,-1.213 0.046,-1.825 0,-22.468 -18.28,-40.747 -40.746,-40.747 m 0,84.91 c -24.352,0 -44.163,-19.811 -44.163,-44.163 0,-24.353 19.811,-44.164 44.163,-44.164 24.351,0 44.163,19.811 44.163,44.164 0,24.352 -19.812,44.163 -44.163,44.163" /></g><g
           transform="translate(136.7718,406.5305)"
           id="g26"><path
             id="path28"
             style="fill:#b4b8c1;fill-opacity:1;fill-rule:nonzero;stroke:none"
             d="m 0,0 -4.699,17.845 h -6.542 L -15.703,0 Z M -16.297,24.388 H 0.655 L 11.658,-17.249 H 4.521 L 1.666,-6.542 h -19.153 l -2.676,-10.707 h -6.841 z" /></g><g
           transform="translate(159.4291,430.9182)"
           id="g30"><path
             id="path32"
             style="fill:#b4b8c1;fill-opacity:1;fill-rule:nonzero;stroke:none"
             d="m 0,0 h 9.814 l 18.142,-33.012 h 0.595 l -0.595,5.056 V 0 h 6.84 V -41.637 H 24.981 L 6.84,-8.625 H 6.245 L 6.84,-13.681 V -41.637 H 0 Z" /></g><g
           transform="translate(232.2289,406.5305)"
           id="g34"><path
             id="path36"
             style="fill:#b4b8c1;fill-opacity:1;fill-rule:nonzero;stroke:none"
             d="m 0,0 -4.699,17.845 h -6.542 L -15.703,0 Z M -16.297,24.388 H 0.653 L 11.657,-17.249 H 4.52 L 1.665,-6.542 h -19.153 l -2.676,-10.707 h -6.84 z" /></g><g
           transform="translate(293.2484,409.5051)"
           id="g38"><path
             id="path40"
             style="fill:#b4b8c1;fill-opacity:1;fill-rule:nonzero;stroke:none"
             d="M 0,0 C 5.948,0 8.922,2.974 8.922,7.436 8.922,11.896 5.948,14.87 0,14.87 H -11.301 V 0 Z M -18.142,21.413 H 0 c 9.814,0 16.06,-6.245 16.06,-13.977 C 16.06,-0.297 9.814,-6.543 0,-6.543 h -11.301 v -13.681 h -6.841 z" /></g><g
           transform="translate(340.5296,394.6349)"
           id="g42"><path
             id="path44"
             style="fill:#b4b8c1;fill-opacity:1;fill-rule:nonzero;stroke:none"
             d="M 0,0 C 8.923,0 15.168,6.245 15.168,15.466 15.168,24.685 8.923,30.93 0,30.93 -8.922,30.93 -15.169,24.685 -15.169,15.466 -15.169,6.245 -8.922,0 0,0 m 0,37.473 c 12.787,0 22.306,-9.517 22.306,-22.007 C 22.306,2.975 12.787,-6.542 0,-6.542 c -12.788,0 -22.306,9.517 -22.306,22.008 0,12.49 9.518,22.007 22.306,22.007" /></g><g
           transform="translate(391.0814,409.5051)"
           id="g46"><path
             id="path48"
             style="fill:#b4b8c1;fill-opacity:1;fill-rule:nonzero;stroke:none"
             d="M 0,0 C 5.948,0 8.922,2.974 8.922,7.436 8.922,11.896 5.948,14.87 0,14.87 H -11.301 V 0 Z M -18.142,21.413 H 0 c 9.814,0 16.06,-6.245 16.06,-13.977 C 16.06,-0.297 9.814,-6.543 0,-6.543 h -11.301 v -13.681 h -6.841 z" /></g><g
           transform="translate(438.3646,394.6349)"
           id="g50"><path
             id="path52"
             style="fill:#b4b8c1;fill-opacity:1;fill-rule:nonzero;stroke:none"
             d="M 0,0 C 8.923,0 15.168,6.245 15.168,15.466 15.168,24.685 8.923,30.93 0,30.93 -8.922,30.93 -15.167,24.685 -15.167,15.466 -15.167,6.245 -8.922,0 0,0 m 0,37.473 c 12.788,0 22.306,-9.517 22.306,-22.007 C 22.306,2.975 12.788,-6.542 0,-6.542 c -12.788,0 -22.306,9.517 -22.306,22.008 0,12.49 9.518,22.007 22.306,22.007" /></g><g
           transform="translate(475.8304,430.9182)"
           id="g54"><path
             id="path56"
             style="fill:#b4b8c1;fill-opacity:1;fill-rule:nonzero;stroke:none"
             d="m 0,0 8.923,-35.094 h 6.542 L 24.09,0 h 6.841 L 20.521,-41.637 H 3.57 L -7.137,0 Z" /></g><path
           id="path58"
           style="fill:#b4b8c1;fill-opacity:1;fill-rule:nonzero;stroke:none"
           d="m 518.948,430.918 h 6.841 v -41.637 h -6.841 z" /><g
           transform="translate(559.4535,444.8962)"
           id="g60"><path
             id="path62"
             style="fill:#b4b8c1;fill-opacity:1;fill-rule:nonzero;stroke:none"
             d="M 0,0 H 7.435 V -0.06 L 0.594,-8.625 h -5.353 z m -1.249,-12.788 c 17.249,0 20.817,-15.168 20.817,-15.168 h -6.839 c 0,0 -3.272,8.624 -13.978,8.624 -8.922,0 -15.169,-6.245 -15.169,-15.463 0,-9.221 6.247,-15.466 15.169,-15.466 11.004,0 14.275,9.517 14.275,9.517 h 6.841 c 0,0 -4.462,-16.059 -21.116,-16.059 -12.491,0 -22.306,9.219 -22.306,22.008 0,12.787 9.815,22.007 22.306,22.007" /></g><g
           transform="translate(111.3558,315.3664)"
           id="g64"><path
             id="path66"
             style="fill:#b4b8c1;fill-opacity:1;fill-rule:nonzero;stroke:none"
             d="M 0,0 H 11.104 V -2.492 H 2.606 V -7.024 H 9.291 V -9.517 H 2.606 v -6.344 H 0 Z" /></g><g
           transform="translate(127.1058,315.3664)"
           id="g68"><path
             id="path70"
             style="fill:#b4b8c1;fill-opacity:1;fill-rule:nonzero;stroke:none"
             d="m 0,0 h 2.606 v -9.743 c 0,-2.607 1.473,-4.079 3.852,-4.079 2.379,0 3.853,1.472 3.853,4.079 V 0 h 2.605 v -9.743 c 0,-4.079 -2.492,-6.571 -6.458,-6.571 -3.965,0 -6.458,2.492 -6.458,6.571 z" /></g><g
           transform="translate(145.8021,315.3664)"
           id="g72"><path
             id="path74"
             style="fill:#b4b8c1;fill-opacity:1;fill-rule:nonzero;stroke:none"
             d="m 0,0 h 2.606 v -13.369 h 8.044 v -2.492 H 0 Z" /></g><g
           transform="translate(160.7591,315.3664)"
           id="g76"><path
             id="path78"
             style="fill:#b4b8c1;fill-opacity:1;fill-rule:nonzero;stroke:none"
             d="m 0,0 h 2.606 v -13.369 h 8.044 v -2.492 H 0 Z" /></g><g
           transform="translate(177.642,304.2639)"
           id="g80"><path
             id="path82"
             style="fill:#b4b8c1;fill-opacity:1;fill-rule:nonzero;stroke:none"
             d="m 0,0 c 0,0 0.454,-2.833 3.966,-2.833 2.492,0 3.513,1.02 3.513,2.38 0,3.398 -9.518,1.586 -9.518,7.251 0,2.492 2.267,4.758 5.892,4.758 5.551,0 6.231,-4.645 6.231,-4.645 h -2.72 c 0,0 -0.34,2.266 -3.511,2.266 -2.153,0 -3.172,-1.02 -3.172,-2.266 0,-3.399 9.516,-1.7 9.516,-7.251 0,-2.606 -2.265,-4.872 -6.231,-4.872 C -2.039,-5.212 -2.719,0 -2.719,0 Z" /></g><g
           transform="translate(191.6927,315.3664)"
           id="g84"><path
             id="path86"
             style="fill:#b4b8c1;fill-opacity:1;fill-rule:nonzero;stroke:none"
             d="M 0,0 H 13.029 V -2.492 H 7.817 V -15.861 H 5.212 v 13.369 l -5.212,0 z" /></g><g
           transform="translate(218.2962,306.0764)"
           id="g88"><path
             id="path90"
             style="fill:#b4b8c1;fill-opacity:1;fill-rule:nonzero;stroke:none"
             d="M 0,0 -1.79,6.798 H -4.282 L -5.981,0 Z M -6.208,9.29 H 0.249 L 4.441,-6.571 H 1.723 l -1.088,4.079 h -7.296 l -1.021,-4.079 h -2.605 z" /></g><g
           transform="translate(235.2025,315.8195)"
           id="g92"><path
             id="path94"
             style="fill:#b4b8c1;fill-opacity:1;fill-rule:nonzero;stroke:none"
             d="M 0,0 C 6.571,0 7.931,-5.778 7.931,-5.778 H 5.325 c 0,0 -1.246,3.286 -5.325,3.286 -3.398,0 -5.778,-2.379 -5.778,-5.892 0,-3.512 2.38,-5.891 5.778,-5.891 4.192,0 5.438,3.626 5.438,3.626 h 2.606 c 0,0 -1.699,-6.119 -8.044,-6.119 -4.758,0 -8.497,3.512 -8.497,8.384 C -8.497,-3.512 -4.758,0 0,0" /></g><g
           transform="translate(248.347,315.3664)"
           id="g96"><path
             id="path98"
             style="fill:#b4b8c1;fill-opacity:1;fill-rule:nonzero;stroke:none"
             d="M 0,0 H 2.606 V -6.571 H 5.212 L 9.971,0 h 3.058 l -5.551,-7.591 5.778,-8.27 H 10.084 L 5.325,-9.063 H 2.606 v -6.798 H 0 Z" /></g><g
           transform="translate(280.4134,301.9973)"
           id="g100"><path
             id="path102"
             style="fill:#b4b8c1;fill-opacity:1;fill-rule:nonzero;stroke:none"
             d="M 0,0 C 3.512,0 5.778,2.267 5.778,5.438 5.778,8.611 3.512,10.877 0,10.877 H -2.719 V 0 Z M -5.325,13.369 H 0 c 4.985,0 8.497,-3.512 8.497,-7.931 0,-4.418 -3.512,-7.93 -8.497,-7.93 h -5.325 z" /></g><g
           transform="translate(294.1244,315.3664)"
           id="g104"><path
             id="path106"
             style="fill:#b4b8c1;fill-opacity:1;fill-rule:nonzero;stroke:none"
             d="M 0,0 H 11.443 V -2.492 H 2.606 V -6.571 H 9.744 V -9.063 H 2.606 v -4.306 h 8.837 v -2.492 H 0 Z" /></g><g
           transform="translate(312.14,315.3664)"
           id="g108"><path
             id="path110"
             style="fill:#b4b8c1;fill-opacity:1;fill-rule:nonzero;stroke:none"
             d="M 0,0 3.399,-13.369 H 5.892 L 9.178,0 h 2.605 L 7.817,-15.861 H 1.36 L -2.719,0 Z" /></g><g
           transform="translate(328.5706,315.3664)"
           id="g112"><path
             id="path114"
             style="fill:#b4b8c1;fill-opacity:1;fill-rule:nonzero;stroke:none"
             d="M 0,0 H 11.443 V -2.492 H 2.606 V -6.571 H 9.744 V -9.063 H 2.606 v -4.306 h 8.837 v -2.492 H 0 Z" /></g><g
           transform="translate(345.1136,315.3664)"
           id="g116"><path
             id="path118"
             style="fill:#b4b8c1;fill-opacity:1;fill-rule:nonzero;stroke:none"
             d="m 0,0 h 2.606 v -13.369 h 8.044 v -2.492 H 0 Z" /></g><g
           transform="translate(367.888,301.5441)"
           id="g120"><path
             id="path122"
             style="fill:#b4b8c1;fill-opacity:1;fill-rule:nonzero;stroke:none"
             d="m 0,0 c 3.399,0 5.778,2.38 5.778,5.892 0,3.512 -2.379,5.891 -5.778,5.891 -3.398,0 -5.778,-2.379 -5.778,-5.891 C -5.778,2.38 -3.398,0 0,0 m 0,14.275 c 4.872,0 8.497,-3.625 8.497,-8.383 0,-4.759 -3.625,-8.384 -8.497,-8.384 -4.871,0 -8.497,3.625 -8.497,8.384 0,4.758 3.626,8.383 8.497,8.383" /></g><g
           transform="translate(388.5101,307.2092)"
           id="g124"><path
             id="path126"
             style="fill:#b4b8c1;fill-opacity:1;fill-rule:nonzero;stroke:none"
             d="M 0,0 C 2.266,0 3.399,1.133 3.399,2.832 3.399,4.532 2.266,5.665 0,5.665 H -4.305 V 0 Z M -6.911,8.157 H 0 c 3.739,0 6.118,-2.379 6.118,-5.325 0,-2.945 -2.379,-5.324 -6.118,-5.324 h -4.305 v -5.212 h -2.606 z" /></g><g
           transform="translate(399.6156,315.3664)"
           id="g128"><path
             id="path130"
             style="fill:#b4b8c1;fill-opacity:1;fill-rule:nonzero;stroke:none"
             d="M 0,0 H 11.443 V -2.492 H 2.606 V -6.571 H 9.744 V -9.063 H 2.606 v -4.306 h 8.837 v -2.492 H 0 Z" /></g><g
           transform="translate(423.0697,307.6623)"
           id="g132"><path
             id="path134"
             style="fill:#b4b8c1;fill-opacity:1;fill-rule:nonzero;stroke:none"
             d="M 0,0 C 2.38,0 3.399,1.02 3.399,2.605 3.399,4.192 2.38,5.212 0,5.212 H -4.305 V 0 Z M -6.911,7.704 H 0 c 3.853,0 6.118,-2.266 6.118,-5.099 0,-2.265 -1.472,-4.191 -4.079,-4.871 L 6.005,-8.157 H 2.946 l -3.739,5.665 h -3.512 v -5.665 h -2.606 z" /></g><g
           transform="translate(164.9291,348.1408)"
           id="g136"><path
             id="path138"
             style="fill:#b4b8c1;fill-opacity:1;fill-rule:nonzero;stroke:none"
             d="m 0,0 h -52.184 c -0.642,0 -1.163,0.521 -1.163,1.163 v 1.898 c 0,0.642 0.521,1.164 1.163,1.164 H 0 c 0.643,0 1.163,-0.522 1.163,-1.164 V 1.163 C 1.163,0.521 0.643,0 0,0" /></g></g></g></g></svg>