<svg width="42" height="34" viewBox="0 0 58 50" fill="none" xmlns="http://www.w3.org/2000/svg">
<path d="M48.1 24.3H11.3V47.4H48.1V24.3Z" fill="white" stroke="#2c2c2b" stroke-width="4" stroke-linecap="round" stroke-linejoin="round"/>
<path d="M39.7 31.5C41.3 33.8 43.8 35.1 46.6 35.2C51.7 35.2 55.8 30.3 55.8 24.3C55.8 18.3 51.7 13.4 46.6 13.4C45.7 13.4 44.9 13.6 44.1 13.8C40.9 5.89999 31.8 2.09999 23.9 5.39999C19.9 7.09999 16.7 10.3 15.3 14.4C14.1 13.7 12.8 13.4 11.4 13.4C6.30001 13.3 2.20001 18.2 2.20001 24.2C2.20001 30.2 6.30001 35.1 11.4 35.1C14.5 35 17.3 33.3 18.9 30.6" fill="white"/>
<path d="M39.7 31.5C41.3 33.8 43.8 35.1 46.6 35.2C51.7 35.2 55.8 30.3 55.8 24.3C55.8 18.3 51.7 13.4 46.6 13.4C45.7 13.4 44.9 13.6 44.1 13.8C40.9 5.89999 31.8 2.09999 23.9 5.39999C19.9 7.09999 16.7 10.3 15.3 14.4C14.1 13.7 12.8 13.4 11.4 13.4C6.30001 13.3 2.20001 18.2 2.20001 24.2C2.20001 30.2 6.30001 35.1 11.4 35.1C14.5 35 17.3 33.3 18.9 30.6" stroke="#2c2c2b" stroke-width="4" stroke-linecap="round" stroke-linejoin="round"/>
<path d="M39.7 31.5C41.3 33.8 43.8 35.1 46.6 35.2C51.7 35.2 55.8 30.3 55.8 24.3C55.8 18.3 51.7 13.4 46.6 13.4C45.7 13.4 44.9 13.6 44.1 13.8C40.9 5.89999 31.8 2.09999 23.9 5.39999C19.9 7.09999 16.7 10.3 15.3 14.4C14.1 13.7 12.8 13.4 11.4 13.4C6.30001 13.3 2.20001 18.2 2.20001 24.2C2.20001 30.2 6.30001 35.1 11.4 35.1C14.5 35 17.3 33.3 18.9 30.6" stroke="#2c2c2b" stroke-width="4" stroke-linecap="round" stroke-linejoin="round"/>
<path d="M14.3 17.7C14.3 9.1 21.2 2.2 29.8 2.2C38.4 2.2 45.3 9.1 45.3 17.7" fill="white"/>
<path d="M14.3 17.7C14.3 9.1 21.2 2.2 29.8 2.2C38.4 2.2 45.3 9.1 45.3 17.7" stroke="#2c2c2b" stroke-width="4" stroke-miterlimit="10" stroke-linecap="round"/>
</svg>
